<svg width="23" height="24" viewBox="0 0 23 24" fill="none" xmlns="http://www.w3.org/2000/svg">
<path d="M17.8333 13.1687V14.3353C17.8333 17.567 17.0586 20.6878 15.5991 23.489L15.3343 23.979L13.2961 22.8427C14.6495 20.416 15.4078 17.6977 15.4918 14.8673L15.5 14.3353V13.1687H17.8333ZM10.8333 9.66867H13.1666V14.3353L13.1608 14.7775C13.0726 17.9715 11.9734 21.0551 10.0213 23.5847L9.75181 23.923L7.94348 22.4483C9.72426 20.2735 10.7376 17.5718 10.8263 14.7623L10.8333 14.3353V9.66867ZM12 5.00201C13.5471 5.00201 15.0308 5.61659 16.1248 6.71055C17.2187 7.80451 17.8333 9.28824 17.8333 10.8353H15.5C15.5 9.90708 15.1312 9.01684 14.4749 8.36046C13.8185 7.70409 12.9282 7.33534 12 7.33534C11.0717 7.33534 10.1815 7.70409 9.5251 8.36046C8.86873 9.01684 8.49998 9.90708 8.49998 10.8353V14.3353C8.49998 16.9428 7.54331 19.4033 5.85048 21.3085L5.60315 21.5768L3.91381 19.9668C5.27876 18.5388 6.07709 16.6626 6.15965 14.6888L6.16665 14.3353V10.8353C6.16665 9.28824 6.78123 7.80451 7.87519 6.71055C8.96915 5.61659 10.4529 5.00201 12 5.00201V5.00201ZM12 0.335339C14.7848 0.335339 17.4555 1.44159 19.4246 3.41072C21.3937 5.37985 22.5 8.05056 22.5 10.8353V14.3353C22.5 16.3163 22.2643 18.267 21.8035 20.157L21.6413 20.7858L19.3896 20.1722C19.847 18.4957 20.1048 16.7632 20.1573 14.998L20.1666 14.3353V10.8353C20.1666 9.31968 19.7449 7.83392 18.9485 6.54434C18.1521 5.25476 17.0126 4.21224 15.6574 3.53345C14.3023 2.85466 12.785 2.56638 11.2753 2.70088C9.7656 2.83538 8.32314 3.38734 7.10931 4.29501L5.44681 2.63134C7.30587 1.14183 9.61782 0.331806 12 0.335339V0.335339ZM3.79598 4.28217L5.45965 5.94467C4.45903 7.27844 3.89288 8.8877 3.83798 10.5542L3.83331 10.8353L3.83798 13.1687C3.83798 14.4753 3.52998 15.7388 2.94898 16.8752L2.76698 17.2135L0.740479 16.0562C1.18381 15.2803 1.44281 14.4147 1.49415 13.5093L1.50465 13.1687V10.8353C1.49772 8.45339 2.30632 6.14083 3.79598 4.28217V4.28217Z" fill="#C7C5EB"/>
</svg>
