<svg width="132" height="25" viewBox="0 0 132 25" fill="none" xmlns="http://www.w3.org/2000/svg">
<path d="M79.3847 4.9239H79.2916C77.2447 4.9239 75.5234 5.10971 74.0813 5.48131C72.6391 5.85292 71.4296 6.45679 70.3596 7.29291L70.1735 7.43225V4.87744H63.0093V19.4631H70.3131V15.2361C70.3131 13.378 71.0109 12.1703 72.453 11.52C73.8487 10.8696 75.7095 10.5445 77.989 10.5445H81.4781V5.0168C80.7803 4.97035 80.0825 4.9239 79.3847 4.9239Z" fill="#FF8333"/>
<path d="M131.953 12.6348V8.91868C131.953 7.61805 131.488 6.64258 130.604 5.94582C129.674 5.24905 128.418 4.78454 126.743 4.55228C125.068 4.32003 122.928 4.18066 120.277 4.18066C116.462 4.18066 113.531 4.55228 111.531 5.24905C109.53 5.99227 108.46 7.2929 108.367 9.24385H116.229C116.415 8.68643 116.834 8.31483 117.532 8.08257C118.23 7.85031 119.253 7.75741 120.602 7.75741C121.905 7.75741 122.882 7.85031 123.486 8.03612C124.045 8.22192 124.37 8.50062 124.37 8.91868C124.37 9.24384 124.231 9.4761 123.905 9.66191C123.58 9.80126 123.114 9.89416 122.463 9.94062L113.205 10.5909C111.251 10.7303 109.763 11.1483 108.693 11.8916C107.669 12.6348 107.111 13.7961 107.111 15.3754C107.111 17.0476 107.902 18.3018 109.484 19.0915C111.065 19.8811 113.112 20.2992 115.624 20.2992C119.904 20.2992 122.882 19.4631 124.696 17.7909V19.556H125.161H132V12.6348H131.953ZM124.65 13.1922C124.65 14.3999 123.998 15.3289 122.696 15.8864C121.393 16.4438 119.811 16.7689 117.997 16.7689C116.881 16.7689 116.09 16.676 115.531 16.4438C115.02 16.2115 114.741 15.8399 114.741 15.2825C114.741 14.7715 114.927 14.3999 115.345 14.1677C115.764 13.9354 116.369 13.7496 117.253 13.6567L122.928 13.0528C123.254 13.0064 123.58 12.9599 123.905 12.9135C124.231 12.867 124.463 12.7741 124.65 12.6812V13.1922Z" fill="#FF8333"/>
<path d="M100.505 4.9239L96.5974 11.6593L96.4113 11.9845L95.8996 12.867L95.8065 13.0528L95.7135 12.867L95.1087 11.8451L94.8761 11.4271L91.1079 4.9239H82.8271L91.5266 18.0696L91.1544 18.627C90.9218 18.9521 90.5962 19.1379 90.1309 19.2773C89.6657 19.4166 88.9679 19.4631 88.0375 19.4631C86.5023 19.4631 84.8276 19.4631 84.1763 19.4631V24.294C85.0136 24.294 87.1071 24.3405 89.247 24.3405C91.2009 24.3405 92.7361 24.2011 93.8992 23.9224C95.0622 23.6437 96.0856 23.1327 96.923 22.436C97.8069 21.7392 98.6908 20.6244 99.6212 19.1844L108.879 4.87744H100.505V4.9239Z" fill="#FF8333"/>
<path d="M53.1468 4.92383V11.7057C53.1468 13.0528 52.635 14.0282 51.565 14.6321C50.4951 15.236 49.1925 15.5147 47.7038 15.5147C44.6799 15.5147 43.1913 14.5392 43.1913 12.5418V4.92383H35.8875V14.5392C35.8875 16.4437 36.6783 17.8837 38.26 18.8592C39.8417 19.8346 41.9817 20.2992 44.6799 20.2992C47.2851 20.2992 49.5181 19.8811 51.379 18.9985C51.379 18.9985 51.6116 18.9056 51.9837 18.6734C52.0303 18.6734 52.0303 18.6269 52.0768 18.6269C52.2163 18.534 52.4024 18.4411 52.542 18.3482C52.635 18.3018 52.7281 18.2553 52.7746 18.2089C52.8676 18.1624 52.9607 18.0695 53.0537 18.0231C53.1002 17.9766 53.1933 17.9301 53.2398 17.8837V19.045V19.5559H60.404V4.97028H53.1468V4.92383Z" fill="#FF8333"/>
<path d="M33.2357 18.5339C33.1892 18.952 33.0961 19.37 32.9101 19.7416C32.9101 19.7881 32.9101 19.7881 32.8635 19.8345C32.4448 20.8564 31.747 21.8319 30.7236 22.7609L30.6305 22.8538C30.4444 22.5751 28.4906 19.6487 20.6285 17.6513C20.4424 17.5584 8.85868 14.5856 8.85868 14.5856C4.57874 13.5172 1.50835 11.334 0.438369 8.59335C-0.585094 6.13144 0.205767 3.53018 2.57834 1.48633C2.57834 1.48633 4.29961 4.59855 12.6734 6.7353C12.7199 6.7353 14.7203 7.24627 17.0464 7.85014C20.3959 8.68626 24.3502 9.70818 24.3502 9.70818C28.5836 10.7766 31.654 12.9598 32.7705 15.6539C33.2357 16.6294 33.3753 17.6049 33.2357 18.5339Z" fill="#FF8333"/>
<path d="M33.2824 0C31.5611 2.74062 29.049 5.66705 25.9786 6.17801C25.7925 6.22446 25.6064 6.22445 25.3738 6.2709C25.2808 6.2709 25.2343 6.2709 25.1412 6.2709C24.3038 6.31735 23.4665 6.27091 22.6291 6.0851C21.9778 5.94575 21.28 5.8064 20.6287 5.66704C18.3491 5.15608 16.3022 4.73803 15.6974 4.59867L15.5114 4.55222C8.25408 2.97288 6.16063 0.88258 5.8815 0.603873L5.74194 0.325164H21.5591C25.746 0.371615 30.0725 0.185805 33.2824 0Z" fill="#FF8333"/>
<path d="M0.0661621 24.3404C1.78744 21.5998 4.29958 18.6733 7.36997 18.1624C7.55606 18.1159 7.74213 18.1159 7.97474 18.0695C8.06778 18.0695 8.1143 18.0695 8.20734 18.0695C9.04472 18.023 9.92863 18.0695 10.7195 18.2553C11.3708 18.3946 12.0686 18.534 12.7199 18.6733C14.9994 19.1843 17.0464 19.6024 17.6511 19.7417L17.8372 19.7882C25.0945 21.3675 27.1879 23.4578 27.4671 23.7365L27.6066 24.0152H11.7895C7.60258 24.0152 3.27611 24.1546 0.0661621 24.3404Z" fill="#FF8333"/>
</svg>
